PathFileType	4	(X/Y/Z)	C:/Users/beibeiliu/ov580/test_trc/User3\sequence.28_training_dense_left.trc
DataRate	CameraRate	NumFrames	NumMarkers	Units	OrigDataRate	OrigDataStartFrame	OrigNumFrames
120	120	17	19	mm	120	127	252
Frame#	Time	ThumbCMC			ThumbMCP			ThumbIP			ThumbTip			IndexMCP			IndexPIP			IndexTip			MiddleMCP			MiddlePIP			MiddleTip			RingMCP			RingPIP			RingTip			PinkyMCP			PinkyPIP			PinkyTip			BackHand1			BackHand2			BackHand3	
		X0	Y0	Z0	X1	Y1	Z1	X2	Y2	Z2	X3	Y3	Z3	X4	Y4	Z4	X5	Y5	Z5	X6	Y6	Z6	X7	Y7	Z7	X8	Y8	Z8	X9	Y9	Z9	X10	Y10	Z10	X11	Y11	Z11	X12	Y12	Z12	X13	Y13	Z13	X14	Y14	Z14	X15	Y15	Z15	X16	Y16	Z16	X17	Y17	Z17	X18	Y18	Z18	
126	1.05	-121.579	-31.9219	25.2708	-108.899	-38.1491	2.29785	-91.8273	-40.7814	-27.6255	-86.0591	-44.896	-46.8902	-126.15	12.7891	-42.6779	-121.699	16.2749	-65.8883	-123.015	19.0572	-94.5344	-147.468	20.5391	-41.2877	-137.737	28.9441	-65.3519	-131.209	39.2075	-93.8841	-170.029	8.41623	-49.0373	-167.357	6.05822	-71.8024	-166.968	0.0389524	-96.9593	-191.388	-6.35033	-37.1692	-185.974	-13.5732	-57.2024	-185.988	-30.3094	-78.8593	-173.994	9.18503	7.91165	-178.824	-4.51995	40.0126	-145.57	1.59253	24.94	
127	1.05833	-121.806	-31.6027	26.0719	-104.622	-40.5486	2.1371	-95.3628	-42.11	-25.6643	-83.6321	-45.8136	-49.6448	-129.757	9.93338	-43.2616	-123.616	13.0095	-66.4872	-124.403	16.352	-95.3148	-142.539	19.6258	-46.0208	-138.28	26.8389	-70.2337	-132.398	37.3865	-98.5227	-168.085	6.84497	-47.5177	-168.734	5.07035	-71.205	-163.952	-2.21691	-100.824	-192.394	-6.80246	-37.1843	-193.135	-13.8991	-58.9229	-188.461	-27.7865	-80.6062	-173.025	5.81011	11.9194	-177.728	-0.534397	36.4605	-146.019	1.13463	23.4532	
128	1.06667	-122.845	-32.0493	26.0795	-106.123	-40.7266	1.60379	-94.6964	-43.6478	-26.6963	-85.7717	-49.6462	-45.4661	-131.46	6.28723	-42.0164	-126.575	9.33186	-70.2406	-122.229	9.41	-92.3953	-146.32	16.9439	-48.5872	-138.308	24.5494	-71.2415	-135.004	32.7999	-99.5909	-170.077	5.17855	-49.6127	-169.158	3.90128	-70.9114	-166.564	-4.9565	-101.535	-191.132	-9.01598	-34.963	-194.937	-16.1096	-60.2009	-189.808	-29.5953	-82.802	-174.833	4.57466	7.7765	-179.592	-1.84874	38.3823	-143.939	-0.503655	26.2532	
129	1.075	-121.99	-32.4392	24.8145	-107.724	-41.2356	-0.303143	-94.5368	-44.1448	-29.6608	-88.5649	-50.1202	-45.0062	-127.96	2.9675	-42.864	-124.771	4.96823	-74.1821	-122.496	4.40974	-94.854	-150.133	13.8099	-47.9331	-140.342	21.0569	-74.0403	-135.991	31.1663	-100.363	-171.408	2.89435	-49.3368	-170.981	3.15789	-73.3725	-169.214	-3.89998	-100.847	-194.785	-10.3015	-36.6162	-194.293	-16.6677	-60.117	-193.429	-27.8853	-83.5907	-174.776	3.97628	7.69932	-177.067	-1.98323	36.7564	-142.346	-1.43428	22.1473	
130	1.08333	-122.606	-32.1392	22.3419	-105.937	-40.4076	-3.08874	-94.9031	-46.4839	-29.4293	-85.434	-52.0551	-47.0523	-127.59	1.64956	-43.746	-126.605	3.85795	-73.3889	-125.729	1.7038	-99.5791	-146.819	13.7172	-48.0398	-142.209	21.3014	-72.0333	-136.522	30.7985	-99.035	-173.039	3.53187	-44.6695	-167.152	4.67655	-75.0798	-168.484	0.547343	-102.765	-192.865	-10.5941	-38.4907	-195.069	-16.007	-58.9776	-198.206	-26.3211	-82.1287	-176.166	5.57511	4.14804	-178.801	-4.12592	34.8964	-143.724	-2.2796	24.2713	
131	1.09167	-124.86	-33.3378	23.575	-108.551	-41.5868	-2.30595	-94.8543	-47.6469	-26.4572	-87.6303	-53.5489	-47.485	-129.747	1.5284	-47.2484	-125.981	2.8353	-71.0971	-127.748	0.47113	-97.2426	-149.288	15.2681	-48.8558	-144.12	22.7393	-72.6011	-141.078	34.4923	-101.143	-173.739	2.6559	-46.8669	-173.723	6.66528	-73.4628	-174.908	4.45314	-98.7987	-192.733	-11.9383	-36.9575	-200.191	-17.835	-58.6769	-205.356	-24.7467	-83.7087	-178.737	2.18582	6.57849	-177.466	-2.88518	35.3657	-146.164	-2.99634	23.778	
132	1.1	-123.87	-31.9791	21.2555	-105.606	-42.4684	-3.70617	-93.903	-46.8368	-29.0874	-86.3819	-54.1965	-45.5567	-132.478	1.51603	-46.8936	-128.518	3.86616	-74.0577	-124.42	1.76392	-97.924	-151.76	15.623	-49.4696	-149.285	24.8503	-73.2363	-144.669	38.0354	-101.875	-172.37	3.24416	-47.8278	-176.888	7.13494	-73.7961	-175.492	8.49242	-97.9992	-194.768	-13.3223	-37.0428	-201.589	-18.4113	-60.2096	-207.937	-24.6125	-82.4074	-176.706	0.236608	3.46812	-178.342	-5.49398	38.1687	-144.333	-0.810668	18.154	
133	1.10833	-120.738	-31.8603	20.0227	-106.468	-42.3163	-0.999045	-95.5896	-47.9234	-27.8727	-83.3952	-54.0762	-49.2313	-130.513	1.88175	-45.6834	-126.97	3.204	-73.5656	-121.59	1.80599	-100.236	-154.446	15.0334	-47.5228	-147.048	25.1378	-71.79	-147.926	37.7154	-98.7943	-180.613	2.27293	-43.7472	-177.904	7.1528	-69.9209	-179.786	10.3503	-99.1181	-200.538	-14.9176	-35.8172	-206.953	-18.1114	-56.3828	-209.288	-21.0868	-77.7376	-178.371	0.666725	8.31106	-180.382	-5.50627	36.6466	-148.105	-1.62497	20.959	
134	1.11667	-123.642	-33.2061	21.8264	-109.884	-41.2946	-6.49631	-96.3687	-47.1894	-30.2104	-85.5722	-54.4656	-48.0184	-131.636	1.59441	-47.1359	-120.494	0.991645	-76.9385	-122.065	-1.64196	-99.3338	-152.732	15.2678	-47.5128	-150.703	25.2148	-69.9936	-144.021	38.0632	-101.383	-180.893	3.07746	-44.7906	-179.479	9.24925	-70.7558	-184.861	12.9999	-99.0546	-202.068	-13.061	-38.9731	-204.406	-15.4359	-59.632	-209.796	-16.6161	-79.8499	-179.71	-0.946171	2.37863	-179.119	-3.56796	31.9879	-146.53	-0.275436	18.1533	
135	1.125	-123.812	-32.9212	23.5108	-108.843	-42.0566	-2.75105	-95.6429	-46.9693	-31.0384	-82.249	-53.9215	-46.9814	-131.062	0.265489	-52.7001	-126.146	-2.34005	-79.5701	-123.793	-7.778	-103.564	-153.282	14.8528	-48.4586	-147.806	24.1236	-71.5198	-147.955	38.604	-104.357	-175.953	4.86929	-47.6864	-182.101	12.4492	-72.3634	-182.04	17.3803	-97.1614	-198.544	-13.2722	-34.9431	-206.646	-12.5221	-59.3271	-213.251	-10.4886	-77.8687	-178.122	0.0486923	4.29282	-184.621	-5.45839	30.4638	-147.295	-1.59943	18.397	
136	1.13333	-127.29	-31.945	18.3532	-109.234	-40.3096	-6.30219	-94.4968	-46.2915	-27.0761	-82.1778	-51.1363	-47.3464	-130.486	-0.67843	-53.082	-126.919	-4.0313	-78.7896	-124.942	-11.7917	-101.795	-152.45	15.6869	-49.4557	-146.594	25.0057	-74.432	-141.503	36.3079	-104.459	-178.736	4.75189	-45.3791	-179.69	12.1939	-67.3375	-183.48	20.6438	-96.2956	-200.489	-9.94766	-39.6497	-208.853	-10.8246	-56.8388	-213.895	-6.04005	-80.4419	-177.34	-0.822003	6.27844	-184.321	-4.84874	32.124	-149.726	-1.4743	18.0312	
137	1.14167	-127.605	-30.907	19.3525	-109.663	-40.1143	-2.81392	-97.2185	-43.5822	-30.6208	-84.4776	-48.8333	-48.797	-131.424	-0.304384	-48.7885	-123.048	-6.20336	-78.6609	-121.176	-15.5221	-102.545	-152.882	12.7717	-47.4035	-146.498	24.1127	-75.6684	-145.674	34.8342	-103.506	-180.449	5.44567	-43.8569	-182.437	13.1208	-67.7646	-180.725	21.851	-96.0777	-199.534	-9.66587	-38.1024	-208.101	-9.8384	-58.4498	-213.179	-5.22392	-75.0394	-178.341	1.18532	6.01194	-183.287	-6.38336	33.3828	-146.711	-0.463648	18.5684	
138	1.15	-126.941	-32.6799	22.5013	-110.875	-39.7099	-2.60284	-92.5128	-42.4275	-31.3268	-81.511	-48.2355	-46.5973	-131.392	0.971023	-50.7876	-127.568	-3.36803	-79.9735	-122.947	-13.2188	-104.885	-155.002	16.0352	-50.9495	-148.372	23.9841	-76.5837	-145.294	34.8723	-102.297	-178.335	5.7509	-43.3328	-179.23	13.139	-68.6083	-185.157	19.2784	-93.1651	-197.174	-8.89764	-39.5582	-208.138	-9.52358	-58.7851	-212.705	-6.22609	-75.143	-180.514	3.66081	2.66196	-181.846	-6.53009	35.632	-145.908	-0.686139	17.2749	
139	1.15833	-122.858	-30.5216	20.5096	-106.968	-36.4648	-4.15078	-93.5578	-39.3317	-29.7407	-83.1157	-43.7431	-45.03	-130.063	3.13441	-50.377	-125.304	1.07984	-79.1886	-125.941	-3.48548	-100.884	-158.43	17.5405	-51.9198	-152.385	23.969	-72.1503	-147.093	35.5707	-100.221	-180.49	4.47624	-47.0404	-183.784	11.4234	-72.3868	-184.087	16.5374	-97.1535	-199.204	-11.9208	-34.7874	-207.23	-13.3088	-56.3472	-214.407	-12.8472	-79.9826	-179.323	-0.0909958	7.06114	-183.543	-4.51886	31.0451	-149.946	-1.9533	20.2253	
140	1.16667	-124.857	-27.9623	21.1184	-106.245	-34.6941	-0.593955	-90.6589	-36.959	-26.6388	-77.0778	-40.6726	-45.7451	-135.305	6.17667	-49.2812	-129.367	9.06549	-77.3526	-127.7	9.12826	-99.4676	-158.49	15.5317	-47.3138	-157.494	26.4477	-72.5254	-152.784	39.0041	-102.832	-180.533	3.41038	-46.547	-183.4	8.48552	-74.3548	-185.282	10.2736	-98.961	-199.815	-14.1076	-38.0588	-205.587	-17.2232	-58.4888	-207.247	-18.5943	-78.9873	-180.745	-0.734816	5.83008	-183.263	-8.22356	36.0924	-147.427	1.39254	18.6097	
141	1.175	-123.653	-27.5337	23.4284	-108.403	-33.16	-0.833977	-87.9355	-35.4509	-22.9435	-80.0613	-39.9346	-40.7064	-133.535	8.12037	-43.8851	-128.647	14.615	-68.3821	-122.996	21.8203	-95.1287	-163.5	15.8756	-45.7045	-157.922	28.8528	-74.8402	-157.439	39.2547	-100.217	-185.711	1.11851	-49.1078	-187.802	2.1957	-72.5136	-190.424	0.652885	-97.5644	-201.727	-16.3636	-41.6173	-204.299	-21.7033	-57.6574	-205.604	-26.0657	-84.1437	-182.597	-0.500089	2.24785	-186.378	-6.36932	32.2553	-152.406	-1.5142	19.6698	
142	1.18333	-123.653	-27.8402	26.6917	-108.387	-32.463	0.670492	-90.1206	-35.2231	-23.2049	-80.8744	-39.3192	-42.5342	-135.917	11.1418	-40.4241	-131.791	20.7853	-65.4821	-126.931	29.4122	-86.1303	-163.347	15.9829	-47.4109	-165.638	26.5756	-71.7611	-166.951	37.8397	-102.85	-183.277	-1.56351	-46.5906	-188.592	-2.53034	-73.0489	-185.034	-7.20686	-103.358	-202.135	-20.4847	-41.9074	-199.763	-26.8835	-59.4624	-204.263	-35.428	-81.3081	-183.46	-1.378	4.96835	-189.916	-7.18708	32.6781	-155.338	-0.981493	21.7232	
